<?xml version="1.0" encoding="UTF-8"?>
<!DOCTYPE svg PUBLIC "-//W3C//DTD SVG 1.1//EN" "http://www.w3.org/Graphics/SVG/1.1/DTD/svg11.dtd">
<svg xmlns="http://www.w3.org/2000/svg" version="1.1" width="512px" height="512px" style="shape-rendering:geometricPrecision; text-rendering:geometricPrecision; image-rendering:optimizeQuality; fill-rule:evenodd; clip-rule:evenodd" xmlns:xlink="http://www.w3.org/1999/xlink">
<g><path style="opacity:0.99" fill="#ffffff" d="M 240.5,31.5 C 298.793,27.7135 340.293,52.0469 365,104.5C 382.038,154.502 372.205,198.335 335.5,236C 291.672,271.397 244.672,276.064 194.5,250C 155.226,224.291 136.393,187.791 138,140.5C 143.314,92.206 168.147,58.3727 212.5,39C 221.716,35.5318 231.049,33.0318 240.5,31.5 Z"/></g>
<g><path style="opacity:0.987" fill="#ffffff" d="M 391.5,256.5 C 397.97,256.28 404.303,257.114 410.5,259C 427.833,267 445.167,275 462.5,283C 480.166,292.662 487.833,307.662 485.5,328C 484.977,391.058 458.977,440.392 407.5,476C 398.237,480.86 389.571,479.86 381.5,473C 326.395,431.257 302.562,375.757 310,306.5C 312.231,299.605 316.064,293.771 321.5,289C 340.169,279.103 359.169,269.77 378.5,261C 382.846,259.164 387.179,257.664 391.5,256.5 Z"/></g>
<g><path style="opacity:0.99" fill="#ffffff" d="M 227.5,284.5 C 246.17,284.333 264.836,284.5 283.5,285C 288.282,285.119 292.949,285.785 297.5,287C 290.191,298.732 286.858,311.565 287.5,325.5C 287.399,381.429 306.733,429.262 345.5,469C 252.5,469.667 159.5,469.667 66.5,469C 51.0745,465.24 41.2412,455.74 37,440.5C 28.2054,399.774 39.0387,365.607 69.5,338C 99.5032,315.173 133.17,300.173 170.5,293C 189.488,289.088 208.488,286.255 227.5,284.5 Z"/></g>
</svg>
