<?xml version="1.0" encoding="UTF-8"?>
<!-- Generator: visioncortex VTracer 0.6.3 -->
<svg version="1.1" xmlns="http://www.w3.org/2000/svg" width="1280" height="1280">
<path d="M0 0 C422.4 0 844.8 0 1280 0 C1280 422.4 1280 844.8 1280 1280 C857.6 1280 435.2 1280 0 1280 C0 857.6 0 435.2 0 0 Z " fill="#000002" transform="translate(0,0)"/>
<path d="M0 0 C3.34 2.86 5.06 5.79 6.88 9.71 C8.09 12.18 9.44 14.54 10.82 16.92 C13.22 21.14 15.5 25.42 17.81 29.69 C21.61 36.67 25.44 43.63 29.5 50.46 C32.76 55.97 35.87 61.55 39 67.12 C44.18 76.36 49.44 85.55 54.7 94.74 C55.84 96.73 56.98 98.72 58.12 100.71 C59.37 102.9 60.63 105.1 61.89 107.29 C65.27 113.16 68.62 119.06 71.88 125 C72.71 126.52 72.71 126.52 73.55 128.06 C75 131 75 131 76.01 134.31 C76.5 135.64 76.5 135.64 77 137 C77.99 137.33 78.98 137.66 80 138 C81.13 139.65 81.13 139.65 82.2 141.8 C82.6 142.58 83 143.37 83.41 144.18 C83.83 145.03 84.25 145.88 84.69 146.75 C88.29 153.82 92.1 160.58 96.33 167.29 C98.07 170.12 99.58 172.99 101.02 175.98 C104.45 183.02 108.43 189.77 112.5 196.46 C114.09 199.15 115.58 201.88 117.06 204.62 C119.53 209.21 122.19 213.62 125 218 C126.51 220.41 127.85 222.6 128.85 225.26 C130.19 228.46 131.9 231.24 133.75 234.19 C134.47 235.34 135.19 236.49 135.9 237.64 C136.59 238.75 137.29 239.86 138 241 C141.22 246.24 144.34 251.45 147 257 C147.53 258.02 147.53 258.02 148.07 259.07 C148.44 259.79 148.81 260.51 149.19 261.25 C149.53 261.92 149.88 262.58 150.23 263.27 C151 265 151 265 151 267 C151.99 267.33 152.98 267.66 154 268 C155.18 269.71 155.18 269.71 156.3 271.94 C156.72 272.75 157.14 273.56 157.57 274.4 C158 275.26 158.43 276.12 158.88 277 C159.73 278.67 160.58 280.33 161.43 282 C161.85 282.83 162.27 283.65 162.71 284.5 C166.47 291.9 166.47 291.9 171.19 298.69 C173.28 301.35 173.94 303.81 175 307 C176.32 308.68 177.66 310.34 179 312 C179.96 313.89 180.91 315.78 181.84 317.69 C183.93 321.86 186.23 325.92 188.5 330 C191.16 334.78 193.81 339.55 196.22 344.47 C197.83 347.96 197.83 347.96 200 350.5 C202.11 353.13 203.42 355.69 204.88 358.71 C206.61 362.25 208.53 365.68 210.43 369.14 C211.47 371.03 212.49 372.93 213.51 374.83 C215.85 379.22 218.24 383.46 221.06 387.56 C223.05 390.46 224.73 393.33 226.25 396.5 C229.33 402.89 233.02 408.91 236.63 415 C238.78 418.61 240.86 422.26 242.87 425.95 C244.2 428.36 245.57 430.76 246.95 433.16 C247.94 434.89 248.92 436.62 249.89 438.36 C253.06 443.95 256.25 449.48 259.75 454.88 C262.07 458.45 264.09 462.02 265.92 465.87 C267.09 468.17 268.39 470.35 269.74 472.55 C273.58 478.9 277.08 485.43 280.59 491.96 C283.21 496.81 285.9 501.54 288.86 506.19 C290.24 508.39 291.53 510.64 292.81 512.91 C294.38 515.67 295.97 518.41 297.57 521.16 C298.56 522.88 299.55 524.59 300.55 526.31 C301.22 527.48 301.9 528.65 302.58 529.82 C303.58 531.54 304.57 533.26 305.57 534.97 C306.45 536.49 306.45 536.49 307.35 538.04 C308.99 540.99 310.5 543.98 312 547 C312.98 548.71 313.96 550.43 314.95 552.13 C316.82 555.45 318.54 558.85 320.25 562.25 C320.8 563.31 320.8 563.31 321.35 564.39 C324 569.65 324 569.65 324 573 C291.17 573.07 258.33 573.12 225.5 573.15 C221.63 573.16 217.75 573.16 213.88 573.16 C213.11 573.17 212.34 573.17 211.54 573.17 C199.05 573.18 186.55 573.2 174.05 573.23 C161.23 573.26 148.42 573.28 135.6 573.28 C127.68 573.29 119.77 573.3 111.86 573.32 C105.8 573.34 99.74 573.34 93.68 573.34 C91.19 573.34 88.69 573.35 86.2 573.36 C82.81 573.37 79.42 573.37 76.04 573.36 C75.04 573.37 74.04 573.38 73.01 573.39 C72.11 573.38 71.21 573.38 70.28 573.37 C69.49 573.37 68.71 573.37 67.9 573.37 C67.27 573.25 66.65 573.13 66 573 C65.01 571.51 65.01 571.51 64 570 C64.34 569.54 64.68 569.07 65.03 568.59 C69.01 562.92 72.12 557 75.11 550.76 C77.12 546.6 79.39 542.83 82 539 C82.74 537.6 83.45 536.18 84.12 534.75 C85.28 532.3 86.05 530.95 88 529 C88.7 527.07 89.4 525.13 90.1 523.2 C91.61 519.51 93.8 516.31 96 513 C99.52 507.64 102.9 502.38 105.62 496.56 C107.51 492.69 109.16 490.21 113 488 C116.7 487.05 120.17 486.88 123.98 486.89 C125.16 486.89 126.35 486.89 127.56 486.89 C128.83 486.89 130.09 486.9 131.39 486.9 C132.7 486.9 134 486.91 135.34 486.91 C138.79 486.91 142.24 486.92 145.69 486.93 C149.22 486.94 152.75 486.95 156.27 486.95 C163.18 486.96 170.09 486.98 177 487 C174.69 481.47 174.69 481.47 171.91 476.17 C171.54 475.52 171.17 474.87 170.79 474.2 C170.41 473.54 170.02 472.87 169.62 472.19 C167.05 467.68 164.53 463.17 162.25 458.5 C160.53 454.98 158.63 451.68 156.51 448.39 C154.47 445.17 152.52 441.9 150.56 438.62 C150.17 437.97 149.78 437.32 149.38 436.64 C148.61 435.35 147.84 434.07 147.06 432.78 C145.63 430.39 144.19 428.01 142.75 425.62 C140.47 421.84 138.32 418 136.2 414.12 C135.1 412.17 133.92 410.31 132.69 408.44 C130.21 404.53 128.17 400.45 126.12 396.31 C120.9 385.73 115.35 375.47 109.11 365.45 C103.16 355.81 97.82 345.77 92.51 335.77 C91.07 333.13 89.56 330.57 88 328 C87.24 326.72 86.49 325.43 85.73 324.14 C85.32 323.44 84.91 322.74 84.48 322.02 C83.6 320.52 82.72 319.02 81.84 317.52 C79.47 313.48 77.07 309.45 74.62 305.44 C72.6 302.07 70.78 298.66 69.06 295.13 C65.44 287.84 61.37 280.86 57 274 C52.69 267.14 48.45 260.34 45 253 C42.7 248.15 40.41 243.46 37.31 239.06 C33.05 232.9 29.8 226.16 26.37 219.52 C24.34 215.62 22.21 211.8 20 208 C19.2 206.61 19.2 206.61 18.38 205.19 C17.05 202.91 17.05 202.91 15 201 C14.19 199.05 13.54 197.07 12.88 195.07 C12.08 192.95 12.08 192.95 10.62 191.19 C8.08 187.75 6.45 183.83 4.69 179.96 C3.36 177.15 2.43 175.27 -0.22 173.57 C-0.81 173.38 -1.4 173.19 -2 173 C-2.37 174.33 -2.37 174.33 -2.75 175.69 C-4.06 179.15 -5.69 181.14 -8 184 C-8.73 185.69 -9.46 187.38 -10.17 189.08 C-11.54 192.25 -13.17 195.27 -14.81 198.31 C-15.16 198.96 -15.51 199.61 -15.87 200.28 C-18.75 205.62 -21.82 210.84 -25 216 C-25.51 216.92 -26.02 217.83 -26.54 218.77 C-27.26 219.88 -27.26 219.88 -28 221 C-28.66 221 -29.32 221 -30 221 C-30.16 221.56 -30.32 222.11 -30.48 222.69 C-31.97 227.57 -33.8 231.59 -36.62 235.85 C-39.34 240.08 -41.62 244.57 -44 249 C-45.49 251.74 -46.99 254.48 -48.49 257.22 C-49.53 259.14 -50.57 261.07 -51.61 263 C-52.13 263.97 -52.65 264.94 -53.19 265.94 C-53.66 266.81 -54.12 267.69 -54.61 268.59 C-56 271 -56 271 -57.55 273 C-59.18 275.24 -60.01 277.43 -61 280 C-61.84 281.5 -62.72 282.98 -63.62 284.44 C-66.21 288.67 -68.72 292.94 -71.19 297.25 C-71.84 298.39 -72.49 299.53 -73.17 300.7 C-74.36 302.85 -75.51 305.03 -76.61 307.23 C-78 310 -78 310 -80.06 313 C-82.12 315.91 -82.12 315.91 -83.06 319.19 C-84 322 -84 322 -85.44 323.44 C-87.14 325.14 -87.9 326.62 -88.88 328.81 C-90.84 332.84 -92.69 335.93 -96 339 C-98.92 339.07 -98.92 339.07 -102 338 C-103.65 335.72 -104.77 333.83 -105.94 331.31 C-106.27 330.64 -106.61 329.97 -106.95 329.28 C-107.99 327.2 -109 325.1 -110 323 C-111.2 320.54 -112.41 318.08 -113.62 315.62 C-114.13 314.57 -114.64 313.51 -115.16 312.41 C-116.61 309.73 -118.1 307.31 -119.81 304.8 C-123.99 298.65 -127.48 292.13 -131.06 285.62 C-134.23 279.91 -137.6 274.52 -141.46 269.25 C-144.24 265.19 -147.33 260.62 -146.7 255.56 C-144.51 247.52 -141.66 241.06 -136.67 234.35 C-134.72 231.6 -133.26 228.77 -131.82 225.73 C-130.42 222.78 -128.68 220.05 -126.91 217.3 C-123.85 212.49 -121.11 207.57 -118.5 202.5 C-115.92 197.49 -113.21 192.66 -110.18 187.9 C-108.45 185.11 -106.91 182.22 -105.38 179.31 C-103.34 175.47 -101.24 171.72 -99 168 C-98.5 167.01 -98.01 166.02 -97.5 165 C-96 162 -96 162 -94.62 159.72 C-92.82 156.69 -91.16 153.61 -89.5 150.5 C-86.92 145.65 -84.31 140.9 -81.19 136.38 C-78.7 132.69 -76.68 128.77 -74.57 124.87 C-71.32 118.92 -67.82 113.16 -64 107.56 C-61.37 103.66 -59.12 99.65 -56.91 95.5 C-53.78 89.76 -50.49 84.1 -47.23 78.44 C-45.16 74.84 -43.14 71.28 -41.32 67.55 C-40 65 -40 65 -38.53 63.57 C-36.91 61.91 -36.1 60.48 -35.12 58.38 C-32.92 53.8 -30.48 49.37 -28 44.94 C-27.57 44.17 -27.15 43.41 -26.71 42.62 C-25.87 41.12 -25.03 39.61 -24.18 38.11 C-23.44 36.79 -22.7 35.46 -21.97 34.13 C-20.31 31.14 -18.54 28.34 -16.5 25.6 C-13.24 21.15 -11.25 16.2 -9.13 11.14 C-6.86 6.04 -4.54 3.27 0 0 Z " fill="#FAFBFC" transform="translate(645,301)"/>
<path d="M0 0 C4.71 4.13 7.17 8.67 9.94 14.25 C12.93 20.13 15.96 25.76 19.77 31.16 C21.42 33.62 22.69 36.2 23.95 38.88 C25.14 41.27 26.47 43.57 27.8 45.89 C29.19 48.34 30.53 50.81 31.88 53.29 C32.39 54.23 32.9 55.17 33.42 56.14 C34.48 58.09 35.53 60.04 36.58 61.99 C39.2 66.83 41.88 71.48 45 76 C47.04 79.32 48.94 82.69 50.79 86.11 C53.9 91.84 57.1 97.52 60.31 103.19 C61.46 105.21 62.6 107.22 63.74 109.24 C64.3 110.22 64.85 111.2 65.42 112.21 C67.23 115.4 69.02 118.6 70.82 121.81 C73.97 127.45 77.18 133.05 80.54 138.58 C82.22 141.37 83.86 144.18 85.5 147 C86.67 149 87.83 151 89 153 C89.55 153.95 90.1 154.9 90.67 155.88 C91.19 156.76 91.71 157.65 92.25 158.56 C92.71 159.35 93.17 160.13 93.64 160.94 C94.93 162.9 96.28 164.42 98 166 C101.2 164.66 102.59 163.57 104.15 160.47 C104.51 159.77 104.87 159.06 105.25 158.34 C105.62 157.59 105.99 156.84 106.38 156.06 C107.17 154.51 107.96 152.96 108.76 151.41 C109.14 150.65 109.52 149.9 109.92 149.12 C112.18 144.69 114.6 140.35 117 136 C117.68 134.75 117.68 134.75 118.37 133.47 C118.81 132.68 119.24 131.88 119.69 131.06 C120.06 130.37 120.44 129.68 120.82 128.97 C122 127 122 127 123.39 125.25 C125.22 122.69 126.5 120.05 127.88 117.23 C129.88 113.26 132.18 109.45 134.44 105.62 C137.9 99.72 141.24 93.84 144.1 87.62 C145 86 145 86 147 85 C148.02 83.06 148.02 83.06 148.94 80.75 C150.41 77.31 152.01 74.18 154 71 C154.86 69.48 155.71 67.96 156.56 66.44 C156.98 65.69 157.39 64.95 157.82 64.18 C159.02 62.03 159.02 62.03 159.96 59.85 C161 58 161 58 164 56 C164.9 54.15 164.9 54.15 165.5 52.06 C166.51 48.86 167.63 47.33 170 45 C173.3 39.37 175.76 33.34 178.01 27.23 C179.07 24.85 180.41 23.06 182 21 C182.64 19.81 183.24 18.6 183.81 17.38 C185.43 14.09 187.13 10.87 188.94 7.69 C189.63 6.46 189.63 6.46 190.34 5.2 C192.26 2.66 194.2 1.47 197 0 C199.34 3.98 201.49 7.97 203.5 12.12 C205.32 15.83 207.36 18.82 210 22 C210.67 23.67 211.34 25.33 212 27 C212.8 28.39 213.64 29.77 214.5 31.12 C218.1 37 221.25 43.1 224.4 49.22 C226.71 53.68 229.17 57.85 232 62 C232.33 62.85 232.66 63.69 233 64.56 C233.9 67.1 233.9 67.1 235.81 69.19 C237.76 71.69 239.25 74.04 240.75 76.81 C241.39 78 241.39 78 242.05 79.21 C243.68 84 243.94 87.79 241.96 92.43 C240.52 95.12 238.97 97.72 237.38 100.31 C236.27 102.18 235.16 104.04 234.05 105.91 C233.52 106.79 232.99 107.67 232.44 108.58 C230.3 112.18 228.33 115.85 226.38 119.55 C225.19 121.66 223.94 123.68 222.64 125.71 C219.88 130.1 217.5 134.64 215.12 139.25 C210.6 147.95 205.9 156.48 200.62 164.75 C196.47 171.33 192.79 178.21 189 185 C187.42 187.83 185.84 190.67 184.25 193.5 C183.72 194.45 183.72 194.45 183.18 195.42 C181.4 198.6 179.57 201.71 177.61 204.78 C174.49 209.72 171.76 214.86 169 220 C165.87 225.84 162.69 231.58 159.13 237.17 C157.36 240.04 155.81 243.01 154.25 246 C151.32 251.56 148.32 257.08 145.25 262.56 C144.89 263.22 144.52 263.87 144.15 264.54 C141.93 268.49 139.52 272.24 137 276 C135.95 277.82 134.93 279.65 133.94 281.5 C133.42 282.45 132.91 283.41 132.38 284.39 C131.35 286.35 130.35 288.32 129.38 290.31 C128 293 128 293 126.12 295.75 C124.37 298.44 122.96 301 121.56 303.88 C119.69 307.72 117.62 311.3 115.31 314.89 C113.82 317.29 112.47 319.76 111.12 322.25 C102.18 338.82 102.18 338.82 99 342 C96.4 341.83 95.28 341.28 93.44 339.44 C91.85 336.74 90.88 334.08 89.94 331.1 C89.03 328.84 89.03 328.84 87.1 326.64 C84.82 323.78 83.38 320.99 81.81 317.69 C78.88 311.64 75.68 305.81 72.34 299.98 C69.83 295.56 67.52 291.08 65.31 286.5 C63.07 281.93 60.69 278.11 57.52 274.16 C55.2 270.87 53.56 267.26 51.83 263.64 C49.23 258.3 46.25 253.26 43.11 248.24 C41.29 245.3 39.72 242.45 38.42 239.25 C37.09 236.2 36.24 235.23 34 233 C32.98 231.24 32.98 231.24 32.07 229.32 C31.73 228.61 31.39 227.9 31.04 227.18 C30.53 226.1 30.53 226.1 30 225 C25.34 215.83 20.46 206.81 15.01 198.09 C13.22 195.19 11.65 192.31 10.34 189.17 C9.26 186.07 9.26 186.07 7.44 184.44 C5.31 182.31 4.85 179.84 4 177 C3.67 176.34 3.34 175.68 3 175 C1.07 175.09 1.07 175.09 -1 176 C-2.56 178.39 -2.56 178.39 -3.81 181.38 C-5.68 185.53 -7.77 189.26 -10.26 193.08 C-14.97 200.37 -18.88 208.06 -22.84 215.77 C-23.42 216.87 -24 217.98 -24.6 219.11 C-25.11 220.1 -25.62 221.09 -26.14 222.11 C-31.4 230.31 -31.4 230.31 -36.03 231.54 C-38.45 231.74 -40.8 231.74 -43.22 231.68 C-44.13 231.68 -45.03 231.68 -45.97 231.68 C-48.96 231.68 -51.94 231.63 -54.93 231.59 C-57.01 231.57 -59.08 231.57 -61.16 231.56 C-66.61 231.54 -72.07 231.48 -77.52 231.41 C-83.09 231.35 -88.66 231.32 -94.23 231.29 C-105.16 231.23 -116.08 231.13 -127 231 C-129.06 227.23 -129.06 227.23 -128.48 225.14 C-128.12 224.52 -127.77 223.89 -127.4 223.24 C-127.02 222.54 -126.63 221.84 -126.23 221.11 C-125.8 220.37 -125.38 219.64 -124.94 218.88 C-124.08 217.33 -123.22 215.78 -122.37 214.24 C-121.95 213.5 -121.54 212.76 -121.11 212 C-119.85 209.72 -118.69 207.41 -117.56 205.06 C-115.13 200.13 -112.47 195.32 -109.81 190.5 C-109.37 189.7 -108.93 188.89 -108.48 188.07 C-108.06 187.31 -107.64 186.56 -107.21 185.78 C-106.83 185.1 -106.45 184.42 -106.07 183.72 C-105 182 -105 182 -103 180 C-102.53 178.87 -102.05 177.73 -101.56 176.56 C-100 173 -100 173 -98.63 171.73 C-96.17 169.11 -94.89 165.91 -93.38 162.69 C-90.07 155.85 -86.32 149.57 -82.08 143.28 C-80.18 140.29 -78.63 137.32 -77.08 134.14 C-75.08 130.18 -72.81 126.39 -70.56 122.56 C-69.63 120.96 -68.69 119.36 -67.75 117.75 C-67.3 116.97 -66.84 116.19 -66.37 115.38 C-64.59 112.29 -62.88 109.16 -61.19 106.02 C-60 104 -60 104 -58.46 101.95 C-56.73 99.64 -55.57 97.14 -54.3 94.55 C-52.61 91.24 -50.82 87.99 -49 84.75 C-48.67 84.15 -48.34 83.55 -47.99 82.92 C-46.48 80.26 -45.03 78.02 -42.84 75.86 C-40.77 73.77 -40.24 72.37 -39.5 69.56 C-38.3 65.58 -36.7 63.19 -34 60 C-33.36 58.81 -32.76 57.59 -32.18 56.37 C-30.03 51.98 -27.58 47.81 -25.06 43.62 C-21.81 38.18 -18.71 32.74 -16.04 26.98 C-14.89 24.79 -13.49 22.96 -12 21 C-10.09 17.31 -8.28 13.59 -6.48 9.85 C-5.95 8.76 -5.42 7.68 -4.88 6.56 C-4.38 5.53 -3.88 4.5 -3.37 3.44 C-2 1 -2 1 0 0 Z " fill="#FAFBFC" transform="translate(449,643)"/>
</svg>
