<?xml version="1.0" encoding="UTF-8"?>
<!DOCTYPE svg PUBLIC "-//W3C//DTD SVG 1.1//EN" "http://www.w3.org/Graphics/SVG/1.1/DTD/svg11.dtd">
<svg xmlns="http://www.w3.org/2000/svg" version="1.1" width="1431px" height="1361px" style="shape-rendering:geometricPrecision; text-rendering:geometricPrecision; image-rendering:optimizeQuality; fill-rule:evenodd; clip-rule:evenodd" xmlns:xlink="http://www.w3.org/1999/xlink">
<g><path style="opacity:1" fill="#010101" d="M -0.5,-0.5 C 476.5,-0.5 953.5,-0.5 1430.5,-0.5C 1430.5,453.167 1430.5,906.833 1430.5,1360.5C 953.5,1360.5 476.5,1360.5 -0.5,1360.5C -0.5,906.833 -0.5,453.167 -0.5,-0.5 Z"/></g>
<g><path style="opacity:1" fill="#fdfdfd" d="M 345.5,219.5 C 387.926,215.466 420.76,231.133 444,266.5C 463.164,304.462 460.164,340.462 435,374.5C 407.929,404.93 374.429,415.43 334.5,406C 288.447,388.928 265.613,355.762 266,306.5C 272.876,259.462 299.376,230.462 345.5,219.5 Z"/></g>
<g><path style="opacity:1" fill="#fefefe" d="M 945.5,788.5 C 781.999,788.167 618.666,788.5 455.5,789.5C 392.5,789.5 329.5,789.5 266.5,789.5C 266.5,886.833 266.5,984.167 266.5,1081.5C 265.5,920.668 265.167,759.668 265.5,598.5C 490.5,598.667 715.5,598.5 940.5,598C 986.562,590.603 1014.4,564.103 1024,518.5C 1028.39,469.426 1008.22,434.926 963.5,415C 955.318,412.564 946.985,410.897 938.5,410C 833.167,409.667 727.833,409.333 622.5,409C 579.337,401.173 552.171,376.006 541,333.5C 534.219,288.914 549.719,254.747 587.5,231C 597.345,225.955 607.679,222.289 618.5,220C 731.5,219.333 844.5,219.333 957.5,220C 1058.84,232.889 1134.34,283.722 1184,372.5C 1220.48,446.417 1225.48,522.417 1199,600.5C 1163.18,692.321 1098.01,752.154 1003.5,780C 984.417,784.608 965.083,787.441 945.5,788.5 Z"/></g>
<g><path style="opacity:1" fill="#fefefe" d="M 455.5,789.5 C 455.5,887.833 455.5,986.167 455.5,1084.5C 447.77,1130.4 421.104,1158.23 375.5,1168C 336.868,1172.26 306.035,1159.09 283,1128.5C 273.624,1114.21 268.124,1098.54 266.5,1081.5C 266.5,984.167 266.5,886.833 266.5,789.5C 329.5,789.5 392.5,789.5 455.5,789.5 Z"/></g>
<g><path style="opacity:1" fill="#b2b2b2" d="M 945.5,788.5 C 782.668,789.5 619.668,789.833 456.5,789.5C 456.833,888.001 456.499,986.335 455.5,1084.5C 455.5,986.167 455.5,887.833 455.5,789.5C 618.666,788.5 781.999,788.167 945.5,788.5 Z"/></g>
<g><path style="opacity:1" fill="#fdfdfd" d="M 726.5,870.5 C 777.869,867.08 813.035,889.08 832,936.5C 833.976,943.379 835.309,950.379 836,957.5C 836.667,998.5 836.667,1039.5 836,1080.5C 830.821,1122.66 808.321,1150.83 768.5,1165C 723.085,1175.76 686.918,1162.26 660,1124.5C 652.881,1112.03 648.215,1098.69 646,1084.5C 645.333,1041.17 645.333,997.833 646,954.5C 654.31,908.691 681.143,880.691 726.5,870.5 Z"/></g>
</svg>
