<?xml version="1.0" encoding="UTF-8"?>
<!DOCTYPE svg PUBLIC "-//W3C//DTD SVG 1.1//EN" "http://www.w3.org/Graphics/SVG/1.1/DTD/svg11.dtd">
<svg xmlns="http://www.w3.org/2000/svg" version="1.1" width="512px" height="512px" style="shape-rendering:geometricPrecision; text-rendering:geometricPrecision; image-rendering:optimizeQuality; fill-rule:evenodd; clip-rule:evenodd" xmlns:xlink="http://www.w3.org/1999/xlink">
<g><path style="opacity:0.983" fill="#ffffff" d="M 347.5,-0.5 C 354.833,-0.5 362.167,-0.5 369.5,-0.5C 399.433,11.0352 409.933,32.3685 401,63.5C 399.333,66.5 397.667,69.5 396,72.5C 335.681,133.653 275.181,194.653 214.5,255.5C 273.153,314.653 331.986,373.653 391,432.5C 404.116,448.013 407.116,465.347 400,484.5C 393.035,498.877 381.869,507.877 366.5,511.5C 360.833,511.5 355.167,511.5 349.5,511.5C 342.015,509.607 335.015,506.441 328.5,502C 259.667,433.167 190.833,364.333 122,295.5C 101.092,268.243 101.425,241.243 123,214.5C 191.5,146 260,77.5 328.5,9C 334.378,4.72741 340.712,1.56075 347.5,-0.5 Z"/></g>
</svg>
