<?xml version="1.0" encoding="UTF-8"?>
<!DOCTYPE svg PUBLIC "-//W3C//DTD SVG 1.1//EN" "http://www.w3.org/Graphics/SVG/1.1/DTD/svg11.dtd">
<svg xmlns="http://www.w3.org/2000/svg" version="1.1" width="512px" height="512px" style="shape-rendering:geometricPrecision; text-rendering:geometricPrecision; image-rendering:optimizeQuality; fill-rule:evenodd; clip-rule:evenodd" xmlns:xlink="http://www.w3.org/1999/xlink">
<g><path style="opacity:0.987" fill="#7747CA" d="M 233.5,-0.5 C 248.5,-0.5 263.5,-0.5 278.5,-0.5C 368.144,10.3879 435.644,54.7213 481,132.5C 497.695,163.971 507.861,197.304 511.5,232.5C 511.5,247.5 511.5,262.5 511.5,277.5C 499.016,377.807 447.016,449.307 355.5,492C 330.316,502.296 304.316,508.796 277.5,511.5C 262.5,511.5 247.5,511.5 232.5,511.5C 130.434,498.225 58.6008,444.558 17,350.5C 8.0309,327.127 2.19757,303.127 -0.5,278.5C -0.5,263.167 -0.5,247.833 -0.5,232.5C 9.30698,148.242 49.6403,83.0754 120.5,37C 155.422,15.9704 193.088,3.4704 233.5,-0.5 Z M 206.5,101.5 C 211.913,101.229 217.246,101.729 222.5,103C 231.501,107.832 240.168,113.165 248.5,119C 254.692,121.978 260.692,121.311 266.5,117C 274.758,110.703 283.758,105.703 293.5,102C 308.496,100.579 318.996,106.746 325,120.5C 337.099,153.972 350.266,186.972 364.5,219.5C 369.655,223.724 374.488,223.39 379,218.5C 379.711,213.644 379.378,208.978 378,204.5C 391.655,209.318 402.989,217.318 412,228.5C 416.522,239.265 414.855,248.931 407,257.5C 394.593,267.954 380.426,275.121 364.5,279C 313.767,291.29 262.433,294.957 210.5,290C 184.523,288.205 159.19,283.205 134.5,275C 123.084,271.23 112.917,265.397 104,257.5C 92.5638,242.261 94.3971,228.761 109.5,217C 116.392,212.387 123.725,208.553 131.5,205.5C 131.833,205.833 132.167,206.167 132.5,206.5C 130.17,211.12 130.003,215.787 132,220.5C 136.667,224.5 141.333,224.5 146,220.5C 160.333,185.167 174.667,149.833 189,114.5C 193.581,108.41 199.415,104.077 206.5,101.5 Z M 317.5,306.5 C 335.672,306.753 350.672,313.753 362.5,327.5C 363.963,321.143 365.963,314.976 368.5,309C 373.534,305.455 377.7,306.288 381,311.5C 381.667,314.167 381.667,316.833 381,319.5C 376.501,339.16 372.167,358.827 368,378.5C 356.386,401.099 337.886,411.266 312.5,409C 287.161,403.191 272.661,387.358 269,361.5C 260.271,356.378 251.437,356.211 242.5,361C 238.049,387.451 222.716,403.451 196.5,409C 167.52,410.266 148.687,397.099 140,369.5C 136.899,351.593 133.399,333.76 129.5,316C 129.89,309.607 133.223,306.941 139.5,308C 141.286,308.785 142.786,309.951 144,311.5C 145.19,316.929 146.69,322.262 148.5,327.5C 168.31,305.905 191.31,301.739 217.5,315C 224.333,319.167 229.833,324.667 234,331.5C 236.107,336.052 238.44,340.386 241,344.5C 250.667,340.5 260.333,340.5 270,344.5C 278.588,322.64 294.422,309.973 317.5,306.5 Z"/></g>
</svg>
