<?xml version="1.0" encoding="UTF-8"?>
<!DOCTYPE svg PUBLIC "-//W3C//DTD SVG 1.1//EN" "http://www.w3.org/Graphics/SVG/1.1/DTD/svg11.dtd">
<svg xmlns="http://www.w3.org/2000/svg" version="1.1" width="512px" height="512px" style="shape-rendering:geometricPrecision; text-rendering:geometricPrecision; image-rendering:optimizeQuality; fill-rule:evenodd; clip-rule:evenodd" xmlns:xlink="http://www.w3.org/1999/xlink">
<g><path style="opacity:0.977" fill="#010000" d="M 259.5,-0.5 C 270.167,-0.5 280.833,-0.5 291.5,-0.5C 346.818,8.76435 383.318,40.0977 401,93.5C 414.311,151.574 397.811,199.074 351.5,236C 338.415,245.208 324.082,251.708 308.5,255.5C 308.5,273.833 308.5,292.167 308.5,310.5C 325.17,310.333 341.837,310.5 358.5,311C 377.582,316.632 386.082,329.465 384,349.5C 383.468,352.264 382.634,354.93 381.5,357.5C 398.931,367.948 404.431,382.948 398,402.5C 395.337,407.665 391.837,412.165 387.5,416C 396.499,436.166 391.832,452.333 373.5,464.5C 380.941,487.277 373.608,502.944 351.5,511.5C 309.833,511.5 268.167,511.5 226.5,511.5C 202.404,507.284 181.737,496.451 164.5,479C 147.167,478.667 129.833,478.333 112.5,478C 110.413,477.208 108.579,476.041 107,474.5C 105.344,429.584 105.011,384.584 106,339.5C 107.251,336.619 109.417,334.786 112.5,334C 129.833,333.667 147.167,333.333 164.5,333C 185.721,310.895 211.721,300.061 242.5,300.5C 242.5,285.5 242.5,270.5 242.5,255.5C 187.466,238.962 155.3,202.296 146,145.5C 143.273,121.587 146.606,98.5874 156,76.5C 159.43,72.0827 163.93,70.4161 169.5,71.5C 172.504,74.1652 174.504,77.4985 175.5,81.5C 158.624,122.21 162.791,160.544 188,196.5C 219.694,234.175 259.527,247.008 307.5,235C 344,222.5 368.5,198 381,161.5C 393.278,111.33 379.112,70.4967 338.5,39C 303.197,16.6655 266.197,13.4988 227.5,29.5C 225.701,29.423 224.034,28.923 222.5,28C 220.917,26.2417 219.25,24.7417 217.5,23.5C 216.416,17.9302 218.083,13.4302 222.5,10C 234.553,5.07402 246.886,1.57402 259.5,-0.5 Z"/></g>
<g><path style="opacity:1" fill="#fd5c7c" d="M 169.5,71.5 C 173.443,64.8922 177.776,58.5589 182.5,52.5C 197.5,56.8333 202.833,51.5 198.5,36.5C 204.559,31.7759 210.892,27.4426 217.5,23.5C 219.25,24.7417 220.917,26.2417 222.5,28C 224.034,28.923 225.701,29.423 227.5,29.5C 266.197,13.4988 303.197,16.6655 338.5,39C 379.112,70.4967 393.278,111.33 381,161.5C 368.5,198 344,222.5 307.5,235C 259.527,247.008 219.694,234.175 188,196.5C 162.791,160.544 158.624,122.21 175.5,81.5C 174.504,77.4985 172.504,74.1652 169.5,71.5 Z"/></g>
<g><path style="opacity:0.947" fill="#040101" d="M 198.5,36.5 C 202.833,51.5 197.5,56.8333 182.5,52.5C 178.108,37.5585 183.441,32.2252 198.5,36.5 Z"/></g>
<g><path style="opacity:1" fill="#030202" d="M 239.5,71.5 C 249.338,70.3765 258.338,72.5431 266.5,78C 269.349,81.0162 272.349,83.8496 275.5,86.5C 281.141,79.6809 288.141,74.8476 296.5,72C 314.369,69.5437 326.536,76.7104 333,93.5C 334.401,101.969 333.068,109.969 329,117.5C 325.686,121.648 322.186,125.648 318.5,129.5C 325.319,135.141 330.152,142.141 333,150.5C 335.359,168.797 327.859,180.963 310.5,187C 300.87,189.031 292.204,187.031 284.5,181C 281.651,177.984 278.651,175.15 275.5,172.5C 271.648,176.186 267.648,179.686 263.5,183C 241.783,192.72 226.616,186.553 218,164.5C 215.969,154.87 217.969,146.204 224,138.5C 227.016,135.651 229.85,132.651 232.5,129.5C 227.379,124.883 223.212,119.549 220,113.5C 213.819,93.5325 220.319,79.5325 239.5,71.5 Z"/></g>
<g><path style="opacity:1" fill="#fafafa" d="M 243.5,91.5 C 246.187,91.3359 248.854,91.5026 251.5,92C 258.136,97.6345 264.469,103.634 270.5,110C 273.8,111.879 277.134,111.879 280.5,110C 286.531,103.634 292.864,97.6345 299.5,92C 310,90.5 314.5,95 313,105.5C 307.366,112.136 301.366,118.469 295,124.5C 293.121,127.8 293.121,131.134 295,134.5C 301.366,140.531 307.366,146.864 313,153.5C 314.5,164 310,168.5 299.5,167C 292.864,161.366 286.531,155.366 280.5,149C 277.134,147.121 273.8,147.121 270.5,149C 264.469,155.366 258.136,161.366 251.5,167C 241,168.5 236.5,164 238,153.5C 243.634,146.864 249.634,140.531 256,134.5C 257.879,131.134 257.879,127.8 256,124.5C 249.634,118.469 243.634,112.136 238,105.5C 236.268,99.3137 238.101,94.647 243.5,91.5 Z"/></g>
<g><path style="opacity:1" fill="#405565" d="M 265.5,259.5 C 263.514,276.134 262.848,293.134 263.5,310.5C 262.503,293.341 262.17,276.008 262.5,258.5C 263.791,258.263 264.791,258.596 265.5,259.5 Z"/></g>
<g><path style="opacity:1" fill="#6d91ab" d="M 265.5,259.5 C 271.167,259.5 276.833,259.5 282.5,259.5C 284.167,259.5 285.833,259.5 287.5,259.5C 287.5,276.5 287.5,293.5 287.5,310.5C 279.5,310.5 271.5,310.5 263.5,310.5C 262.848,293.134 263.514,276.134 265.5,259.5 Z"/></g>
<g><path style="opacity:1" fill="#3e5362" d="M 282.5,259.5 C 284.265,258.539 286.265,258.205 288.5,258.5C 288.83,276.008 288.497,293.341 287.5,310.5C 287.5,293.5 287.5,276.5 287.5,259.5C 285.833,259.5 284.167,259.5 282.5,259.5 Z"/></g>
<g><path style="opacity:1" fill="#fedbd4" d="M 229.5,320.5 C 234.167,320.5 238.833,320.5 243.5,320.5C 243.143,324.664 244.81,327.831 248.5,330C 283.833,330.333 319.167,330.667 354.5,331C 363.393,334.963 365.893,341.463 362,350.5C 360.457,352.378 358.624,353.878 356.5,355C 351.32,355.356 346.82,357.189 343,360.5C 340.286,366.69 341.786,371.523 347.5,375C 355.167,375.333 362.833,375.667 370.5,376C 380.978,380.923 382.978,388.089 376.5,397.5C 374.664,398.919 372.664,400.086 370.5,401C 365.167,401.333 359.833,401.667 354.5,402C 349.071,406.231 348.071,411.398 351.5,417.5C 354.791,420.765 358.791,422.265 363.5,422C 370.128,425.091 372.628,430.257 371,437.5C 369.402,442.099 366.235,444.932 361.5,446C 354.167,446.333 346.833,446.667 339.5,447C 331.911,452.607 331.578,458.607 338.5,465C 344.451,465.367 349.618,467.534 354,471.5C 358.552,480.231 356.386,486.731 347.5,491C 308.167,491.667 268.833,491.667 229.5,491C 217.712,489.182 206.712,485.182 196.5,479C 187.916,473.087 179.916,466.42 172.5,459C 156.837,458.5 141.17,458.333 125.5,458.5C 125.5,423.833 125.5,389.167 125.5,354.5C 140.837,354.667 156.17,354.5 171.5,354C 179.248,346.248 187.581,339.248 196.5,333C 206.909,326.924 217.909,322.758 229.5,320.5 Z"/></g>
</svg>
