<?xml version="1.0" encoding="UTF-8"?>
<!DOCTYPE svg PUBLIC "-//W3C//DTD SVG 1.1//EN" "http://www.w3.org/Graphics/SVG/1.1/DTD/svg11.dtd">
<svg xmlns="http://www.w3.org/2000/svg" version="1.1" width="512px" height="512px" style="shape-rendering:geometricPrecision; text-rendering:geometricPrecision; image-rendering:optimizeQuality; fill-rule:evenodd; clip-rule:evenodd" xmlns:xlink="http://www.w3.org/1999/xlink">
<g><path style="opacity:0.994" fill="#ffffff" d="M 207.5,-0.5 C 239.5,-0.5 271.5,-0.5 303.5,-0.5C 313.543,3.38637 319.376,10.7197 321,21.5C 321.5,77.499 321.667,133.499 321.5,189.5C 377.168,189.333 432.834,189.5 488.5,190C 499.817,191.162 507.484,196.996 511.5,207.5C 511.5,239.5 511.5,271.5 511.5,303.5C 507.484,314.004 499.817,319.838 488.5,321C 432.834,321.5 377.168,321.667 321.5,321.5C 321.667,377.501 321.5,433.501 321,489.5C 319.376,500.28 313.543,507.614 303.5,511.5C 271.5,511.5 239.5,511.5 207.5,511.5C 197.457,507.614 191.624,500.28 190,489.5C 189.5,433.501 189.333,377.501 189.5,321.5C 133.832,321.667 78.1657,321.5 22.5,321C 11.183,319.838 3.51637,314.004 -0.5,303.5C -0.5,271.5 -0.5,239.5 -0.5,207.5C 3.51637,196.996 11.183,191.162 22.5,190C 78.1657,189.5 133.832,189.333 189.5,189.5C 189.333,133.499 189.5,77.499 190,21.5C 191.624,10.7197 197.457,3.38637 207.5,-0.5 Z"/></g>
</svg>
