<?xml version="1.0" encoding="UTF-8"?>
<!DOCTYPE svg PUBLIC "-//W3C//DTD SVG 1.1//EN" "http://www.w3.org/Graphics/SVG/1.1/DTD/svg11.dtd">
<svg xmlns="http://www.w3.org/2000/svg" version="1.1" width="512px" height="512px" style="shape-rendering:geometricPrecision; text-rendering:geometricPrecision; image-rendering:optimizeQuality; fill-rule:evenodd; clip-rule:evenodd" xmlns:xlink="http://www.w3.org/1999/xlink">
<g><path style="opacity:0.987" fill="#ffffff" d="M 232.5,5.5 C 307.603,0.475017 372.77,23.1417 428,73.5C 440.862,60.3038 454.029,47.4705 467.5,35C 480.087,28.8553 491.253,30.6886 501,40.5C 502.861,42.8877 504.194,45.5544 505,48.5C 505.667,98.5 505.667,148.5 505,198.5C 502.096,207.07 496.263,212.57 487.5,215C 437.121,215.982 386.788,215.648 336.5,214C 322.651,206.127 318.484,194.627 324,179.5C 338.869,163.858 353.869,148.191 369,132.5C 369.667,131.833 369.667,131.167 369,130.5C 317.115,86.7914 258.948,75.9581 194.5,98C 140.871,120.739 106.371,160.239 91,216.5C 89.8783,218.624 88.3783,220.457 86.5,222C 74.7591,223.147 62.9257,223.647 51,223.5C 39.8333,223.333 28.6667,223.167 17.5,223C 10.2624,219.345 7.76236,213.512 10,205.5C 29.0635,122.116 77.2301,62.2828 154.5,26C 179.632,15.385 205.632,8.55172 232.5,5.5 Z"/></g>
<g><path style="opacity:0.986" fill="#ffffff" d="M 426.5,287.5 C 448.836,287.333 471.169,287.5 493.5,288C 500.738,291.655 503.238,297.488 501,305.5C 484.668,378.729 444.502,434.563 380.5,473C 312.816,509.684 242.483,515.684 169.5,491C 136.994,478.844 108.161,461.011 83,437.5C 71.5,449 60,460.5 48.5,472C 37.9276,480.788 26.5943,481.788 14.5,475C 11.2379,472.408 8.73791,469.241 7,465.5C 5.34706,414.558 5.01373,363.558 6,312.5C 8.40839,305.091 13.2417,299.924 20.5,297C 70.4415,295.347 120.442,295.014 170.5,296C 187.502,302.295 193.002,314.128 187,331.5C 172.729,347.773 157.729,363.44 142,378.5C 141.333,379.167 141.333,379.833 142,380.5C 192.807,423.461 249.974,434.628 313.5,414C 369.077,392.088 404.577,352.255 420,294.5C 421.694,291.642 423.861,289.309 426.5,287.5 Z"/></g>
</svg>
