<?xml version="1.0" encoding="UTF-8"?>
<!DOCTYPE svg PUBLIC "-//W3C//DTD SVG 1.1//EN" "http://www.w3.org/Graphics/SVG/1.1/DTD/svg11.dtd">
<svg xmlns="http://www.w3.org/2000/svg" version="1.1" width="512px" height="512px" style="shape-rendering:geometricPrecision; text-rendering:geometricPrecision; image-rendering:optimizeQuality; fill-rule:evenodd; clip-rule:evenodd" xmlns:xlink="http://www.w3.org/1999/xlink">
<g><path style="opacity:0.983" fill="#ffffff" d="M 144.5,-0.5 C 150.167,-0.5 155.833,-0.5 161.5,-0.5C 168.985,1.39263 175.985,4.55929 182.5,9C 251.333,77.8333 320.167,146.667 389,215.5C 409.908,242.757 409.575,269.757 388,296.5C 319.5,365 251,433.5 182.5,502C 176.622,506.273 170.288,509.439 163.5,511.5C 156.167,511.5 148.833,511.5 141.5,511.5C 111.567,499.965 101.067,478.631 110,447.5C 111.667,444.5 113.333,441.5 115,438.5C 175.319,377.347 235.819,316.347 296.5,255.5C 237.847,196.347 179.014,137.347 120,78.5C 106.884,62.9867 103.884,45.6534 111,26.5C 117.965,12.1228 129.131,3.12284 144.5,-0.5 Z"/></g>
</svg>
