<?xml version="1.0" encoding="UTF-8"?>
<!DOCTYPE svg PUBLIC "-//W3C//DTD SVG 1.1//EN" "http://www.w3.org/Graphics/SVG/1.1/DTD/svg11.dtd">
<svg xmlns="http://www.w3.org/2000/svg" version="1.1" width="512px" height="512px" style="shape-rendering:geometricPrecision; text-rendering:geometricPrecision; image-rendering:optimizeQuality; fill-rule:evenodd; clip-rule:evenodd" xmlns:xlink="http://www.w3.org/1999/xlink">
<g><path style="opacity:0.991" fill="#ffffff" d="M 175.5,-0.5 C 188.5,-0.5 201.5,-0.5 214.5,-0.5C 281.949,8.29356 332.783,41.9602 367,100.5C 394.239,153.898 397.905,208.898 378,265.5C 358.245,315.256 324.078,351.423 275.5,374C 227.594,393.725 178.927,395.725 129.5,380C 117.661,375.495 106.161,370.329 95,364.5C 63.0849,372.937 31.2516,381.603 -0.5,390.5C -0.5,389.833 -0.5,389.167 -0.5,388.5C 8.60889,357.744 17.2756,326.744 25.5,295.5C 18.6093,282.341 12.776,268.675 8,254.5C 4.31164,241.546 1.4783,228.546 -0.5,215.5C -0.5,201.833 -0.5,188.167 -0.5,174.5C 12.6977,89.1319 60.3643,32.9652 142.5,6C 153.524,3.22802 164.524,1.06135 175.5,-0.5 Z M 194.5,89.5 C 227.702,92.2045 247.536,109.871 254,142.5C 255.771,159.85 251.104,175.183 240,188.5C 230,197.833 220,207.167 210,216.5C 209.5,224.493 209.334,232.493 209.5,240.5C 199.833,240.5 190.167,240.5 180.5,240.5C 180.333,228.162 180.5,215.829 181,203.5C 194.3,191.868 207.3,179.868 220,167.5C 229.713,149.857 226.546,135.024 210.5,123C 190.375,114.564 175.541,120.064 166,139.5C 164.957,142.757 164.457,146.09 164.5,149.5C 154.833,149.5 145.167,149.5 135.5,149.5C 139.088,113.579 158.755,93.5793 194.5,89.5 Z M 180.5,270.5 C 190.167,270.5 199.833,270.5 209.5,270.5C 209.5,280.5 209.5,290.5 209.5,300.5C 199.833,300.5 190.167,300.5 180.5,300.5C 180.5,290.5 180.5,280.5 180.5,270.5 Z"/></g>
<g><path style="opacity:0.987" fill="#ffffff" d="M 511.5,327.5 C 511.5,339.833 511.5,352.167 511.5,364.5C 508.293,387.954 500.96,410.121 489.5,431C 496.47,457.393 503.803,483.559 511.5,509.5C 511.5,510.167 511.5,510.833 511.5,511.5C 510.833,511.5 510.167,511.5 509.5,511.5C 483.559,503.803 457.393,496.47 431,489.5C 410.121,500.96 387.954,508.293 364.5,511.5C 352.167,511.5 339.833,511.5 327.5,511.5C 268.937,502.888 225.604,472.555 197.5,420.5C 291.694,414.74 359.527,369.74 401,285.5C 412.921,257.396 419.421,228.063 420.5,197.5C 472.555,225.604 502.888,268.937 511.5,327.5 Z"/></g>
</svg>
